<mxfile host="app.diagrams.net" agent="Mozilla/5.0 (Windows NT 10.0; Win64; x64) AppleWebKit/537.36 (KHTML, like Gecko) Chrome/139.0.0.0 Safari/537.36" version="28.1.0">
  <diagram name="PÃ¡gina-1" id="soSsL6zXhKgqmUjnJWYs">
    <mxGraphModel dx="1819" dy="1704" grid="1" gridSize="10" guides="1" tooltips="1" connect="1" arrows="1" fold="1" page="1" pageScale="1" pageWidth="827" pageHeight="1169" math="0" shadow="0">
      <root>
        <mxCell id="0" />
        <mxCell id="1" parent="0" />
        <mxCell id="Og1rNRoD4ZcS8iidNWIF-1" value="Produtos" style="whiteSpace=wrap;html=1;align=center;fillColor=#fff2cc;strokeColor=#d6b656;" vertex="1" parent="1">
          <mxGeometry x="1190" y="614" width="100" height="40" as="geometry" />
        </mxCell>
        <mxCell id="Og1rNRoD4ZcS8iidNWIF-2" value="Pedidos" style="whiteSpace=wrap;html=1;align=center;fillColor=#fff2cc;strokeColor=#d6b656;" vertex="1" parent="1">
          <mxGeometry x="916" y="80" width="100" height="40" as="geometry" />
        </mxCell>
        <mxCell id="Og1rNRoD4ZcS8iidNWIF-8" style="edgeStyle=none;rounded=0;orthogonalLoop=1;jettySize=auto;html=1;exitX=0;exitY=0.5;exitDx=0;exitDy=0;entryX=1;entryY=0.5;entryDx=0;entryDy=0;endArrow=none;endFill=0;" edge="1" parent="1" source="Og1rNRoD4ZcS8iidNWIF-3" target="Og1rNRoD4ZcS8iidNWIF-1">
          <mxGeometry relative="1" as="geometry">
            <mxPoint x="1155" y="674" as="sourcePoint" />
          </mxGeometry>
        </mxCell>
        <mxCell id="Og1rNRoD4ZcS8iidNWIF-3" value="id_produto" style="ellipse;whiteSpace=wrap;html=1;align=center;fontStyle=4;fillColor=#fff2cc;strokeColor=#d6b656;" vertex="1" parent="1">
          <mxGeometry x="1321" y="694" width="70" height="30" as="geometry" />
        </mxCell>
        <mxCell id="Og1rNRoD4ZcS8iidNWIF-4" value="&lt;span style=&quot;border-bottom: 1px dotted&quot;&gt;id_fornecedor&lt;/span&gt;" style="ellipse;whiteSpace=wrap;html=1;align=center;fillColor=#fff2cc;strokeColor=#d6b656;" vertex="1" parent="1">
          <mxGeometry x="1371" y="654" width="90" height="40" as="geometry" />
        </mxCell>
        <mxCell id="Og1rNRoD4ZcS8iidNWIF-5" value="descricao" style="ellipse;whiteSpace=wrap;html=1;align=center;fillColor=#fff2cc;strokeColor=#d6b656;" vertex="1" parent="1">
          <mxGeometry x="1321" y="540" width="80" height="30" as="geometry" />
        </mxCell>
        <mxCell id="Og1rNRoD4ZcS8iidNWIF-6" value="quantidade" style="ellipse;whiteSpace=wrap;html=1;align=center;fillColor=#fff2cc;strokeColor=#d6b656;" vertex="1" parent="1">
          <mxGeometry x="1421" y="624" width="80" height="30" as="geometry" />
        </mxCell>
        <mxCell id="Og1rNRoD4ZcS8iidNWIF-7" value="avaliacoes" style="ellipse;whiteSpace=wrap;html=1;align=center;fillColor=#fff2cc;strokeColor=#d6b656;" vertex="1" parent="1">
          <mxGeometry x="1351" y="589" width="80" height="30" as="geometry" />
        </mxCell>
        <mxCell id="Og1rNRoD4ZcS8iidNWIF-9" style="edgeStyle=none;rounded=0;orthogonalLoop=1;jettySize=auto;html=1;exitX=0;exitY=0.5;exitDx=0;exitDy=0;entryX=1;entryY=0.5;entryDx=0;entryDy=0;endArrow=none;endFill=0;" edge="1" parent="1" source="Og1rNRoD4ZcS8iidNWIF-4" target="Og1rNRoD4ZcS8iidNWIF-1">
          <mxGeometry relative="1" as="geometry" />
        </mxCell>
        <mxCell id="Og1rNRoD4ZcS8iidNWIF-10" style="edgeStyle=none;rounded=0;orthogonalLoop=1;jettySize=auto;html=1;exitX=0;exitY=0.5;exitDx=0;exitDy=0;entryX=1;entryY=0.5;entryDx=0;entryDy=0;endArrow=none;endFill=0;" edge="1" parent="1" source="Og1rNRoD4ZcS8iidNWIF-5" target="Og1rNRoD4ZcS8iidNWIF-1">
          <mxGeometry relative="1" as="geometry" />
        </mxCell>
        <mxCell id="Og1rNRoD4ZcS8iidNWIF-11" style="edgeStyle=none;rounded=0;orthogonalLoop=1;jettySize=auto;html=1;exitX=0;exitY=0.5;exitDx=0;exitDy=0;entryX=1;entryY=0.5;entryDx=0;entryDy=0;endArrow=none;endFill=0;" edge="1" parent="1" source="Og1rNRoD4ZcS8iidNWIF-6" target="Og1rNRoD4ZcS8iidNWIF-1">
          <mxGeometry relative="1" as="geometry" />
        </mxCell>
        <mxCell id="Og1rNRoD4ZcS8iidNWIF-12" style="edgeStyle=none;rounded=0;orthogonalLoop=1;jettySize=auto;html=1;entryX=1;entryY=0.5;entryDx=0;entryDy=0;endArrow=none;endFill=0;exitX=0;exitY=0.5;exitDx=0;exitDy=0;" edge="1" parent="1" source="Og1rNRoD4ZcS8iidNWIF-7" target="Og1rNRoD4ZcS8iidNWIF-1">
          <mxGeometry relative="1" as="geometry">
            <mxPoint x="1361" y="654" as="sourcePoint" />
          </mxGeometry>
        </mxCell>
        <mxCell id="Og1rNRoD4ZcS8iidNWIF-13" value="&lt;span style=&quot;border-bottom: 1px dotted&quot;&gt;id_fornecedor&lt;/span&gt;" style="ellipse;whiteSpace=wrap;html=1;align=center;fillColor=#fff2cc;strokeColor=#d6b656;" vertex="1" parent="1">
          <mxGeometry x="1077" y="-45" width="90" height="40" as="geometry" />
        </mxCell>
        <mxCell id="Og1rNRoD4ZcS8iidNWIF-14" value="&lt;span style=&quot;border-bottom: 1px dotted&quot;&gt;id_comprador&lt;/span&gt;" style="ellipse;whiteSpace=wrap;html=1;align=center;fillColor=#fff2cc;strokeColor=#d6b656;" vertex="1" parent="1">
          <mxGeometry x="987" y="-20" width="90" height="40" as="geometry" />
        </mxCell>
        <mxCell id="Og1rNRoD4ZcS8iidNWIF-15" value="&lt;span style=&quot;border-bottom: 1px dotted&quot;&gt;id_produto&lt;/span&gt;" style="ellipse;whiteSpace=wrap;html=1;align=center;fillColor=#fff2cc;strokeColor=#d6b656;" vertex="1" parent="1">
          <mxGeometry x="946" y="-70" width="90" height="40" as="geometry" />
        </mxCell>
        <mxCell id="Og1rNRoD4ZcS8iidNWIF-16" value="preco_total" style="ellipse;whiteSpace=wrap;html=1;align=center;dashed=1;fillColor=#fff2cc;strokeColor=#d6b656;" vertex="1" parent="1">
          <mxGeometry x="827" y="10" width="70" height="30" as="geometry" />
        </mxCell>
        <mxCell id="Og1rNRoD4ZcS8iidNWIF-17" value="quantidade" style="ellipse;whiteSpace=wrap;html=1;align=center;fillColor=#fff2cc;strokeColor=#d6b656;" vertex="1" parent="1">
          <mxGeometry x="827" y="-40" width="80" height="30" as="geometry" />
        </mxCell>
        <mxCell id="Og1rNRoD4ZcS8iidNWIF-18" value="endereco" style="ellipse;whiteSpace=wrap;html=1;align=center;fillColor=#fff2cc;strokeColor=#d6b656;" vertex="1" parent="1">
          <mxGeometry x="897" y="-10" width="80" height="30" as="geometry" />
        </mxCell>
        <mxCell id="Og1rNRoD4ZcS8iidNWIF-19" style="edgeStyle=none;rounded=0;orthogonalLoop=1;jettySize=auto;html=1;exitX=0.5;exitY=0;exitDx=0;exitDy=0;entryX=0.5;entryY=1;entryDx=0;entryDy=0;endArrow=none;endFill=0;" edge="1" parent="1" source="Og1rNRoD4ZcS8iidNWIF-2" target="Og1rNRoD4ZcS8iidNWIF-18">
          <mxGeometry relative="1" as="geometry">
            <mxPoint x="1016" y="250" as="sourcePoint" />
            <mxPoint x="936" y="180" as="targetPoint" />
          </mxGeometry>
        </mxCell>
        <mxCell id="Og1rNRoD4ZcS8iidNWIF-20" style="edgeStyle=none;rounded=0;orthogonalLoop=1;jettySize=auto;html=1;exitX=0.5;exitY=0;exitDx=0;exitDy=0;entryX=0.5;entryY=1;entryDx=0;entryDy=0;endArrow=none;endFill=0;" edge="1" parent="1" source="Og1rNRoD4ZcS8iidNWIF-2" target="Og1rNRoD4ZcS8iidNWIF-17">
          <mxGeometry relative="1" as="geometry">
            <mxPoint x="1016" y="250" as="sourcePoint" />
            <mxPoint x="936" y="180" as="targetPoint" />
          </mxGeometry>
        </mxCell>
        <mxCell id="Og1rNRoD4ZcS8iidNWIF-21" style="edgeStyle=none;rounded=0;orthogonalLoop=1;jettySize=auto;html=1;exitX=0.5;exitY=0;exitDx=0;exitDy=0;entryX=0.5;entryY=1;entryDx=0;entryDy=0;endArrow=none;endFill=0;" edge="1" parent="1" source="Og1rNRoD4ZcS8iidNWIF-2" target="Og1rNRoD4ZcS8iidNWIF-16">
          <mxGeometry relative="1" as="geometry">
            <mxPoint x="1016" y="250" as="sourcePoint" />
            <mxPoint x="936" y="180" as="targetPoint" />
          </mxGeometry>
        </mxCell>
        <mxCell id="Og1rNRoD4ZcS8iidNWIF-22" style="edgeStyle=none;rounded=0;orthogonalLoop=1;jettySize=auto;html=1;exitX=0.5;exitY=0;exitDx=0;exitDy=0;entryX=0.5;entryY=1;entryDx=0;entryDy=0;endArrow=none;endFill=0;" edge="1" parent="1" source="Og1rNRoD4ZcS8iidNWIF-2" target="Og1rNRoD4ZcS8iidNWIF-15">
          <mxGeometry relative="1" as="geometry">
            <mxPoint x="1016" y="250" as="sourcePoint" />
            <mxPoint x="936" y="180" as="targetPoint" />
          </mxGeometry>
        </mxCell>
        <mxCell id="Og1rNRoD4ZcS8iidNWIF-23" style="edgeStyle=none;rounded=0;orthogonalLoop=1;jettySize=auto;html=1;exitX=0.5;exitY=0;exitDx=0;exitDy=0;entryX=0.5;entryY=1;entryDx=0;entryDy=0;endArrow=none;endFill=0;" edge="1" parent="1" source="Og1rNRoD4ZcS8iidNWIF-2" target="Og1rNRoD4ZcS8iidNWIF-14">
          <mxGeometry relative="1" as="geometry">
            <mxPoint x="1016" y="250" as="sourcePoint" />
            <mxPoint x="936" y="180" as="targetPoint" />
          </mxGeometry>
        </mxCell>
        <mxCell id="Og1rNRoD4ZcS8iidNWIF-24" style="edgeStyle=none;rounded=0;orthogonalLoop=1;jettySize=auto;html=1;exitX=0.5;exitY=0;exitDx=0;exitDy=0;entryX=0.5;entryY=1;entryDx=0;entryDy=0;endArrow=none;endFill=0;" edge="1" parent="1" source="Og1rNRoD4ZcS8iidNWIF-2" target="Og1rNRoD4ZcS8iidNWIF-13">
          <mxGeometry relative="1" as="geometry">
            <mxPoint x="1016" y="250" as="sourcePoint" />
            <mxPoint x="936" y="180" as="targetPoint" />
          </mxGeometry>
        </mxCell>
        <mxCell id="Og1rNRoD4ZcS8iidNWIF-26" value="Pagamento" style="whiteSpace=wrap;html=1;align=center;fillColor=#fff2cc;strokeColor=#d6b656;" vertex="1" parent="1">
          <mxGeometry x="1180" y="300" width="100" height="40" as="geometry" />
        </mxCell>
        <mxCell id="Og1rNRoD4ZcS8iidNWIF-28" value="&lt;span style=&quot;border-bottom: 1px dotted&quot;&gt;id_comprador&lt;/span&gt;" style="ellipse;whiteSpace=wrap;html=1;align=center;fillColor=#fff2cc;strokeColor=#d6b656;" vertex="1" parent="1">
          <mxGeometry x="1340" y="240" width="90" height="40" as="geometry" />
        </mxCell>
        <mxCell id="Og1rNRoD4ZcS8iidNWIF-30" value="&lt;span style=&quot;border-bottom: 1px dotted&quot;&gt;id_fornecedor&lt;/span&gt;" style="ellipse;whiteSpace=wrap;html=1;align=center;fillColor=#fff2cc;strokeColor=#d6b656;" vertex="1" parent="1">
          <mxGeometry x="1430" y="320" width="90" height="40" as="geometry" />
        </mxCell>
        <mxCell id="Og1rNRoD4ZcS8iidNWIF-31" value="preco_total" style="ellipse;whiteSpace=wrap;html=1;align=center;dashed=1;fillColor=#fff2cc;strokeColor=#d6b656;" vertex="1" parent="1">
          <mxGeometry x="1375" y="360" width="70" height="30" as="geometry" />
        </mxCell>
        <mxCell id="Og1rNRoD4ZcS8iidNWIF-33" value="forma_pagamento" style="ellipse;whiteSpace=wrap;html=1;align=center;fillColor=#fff2cc;strokeColor=#d6b656;" vertex="1" parent="1">
          <mxGeometry x="1390" y="290" width="120" height="30" as="geometry" />
        </mxCell>
        <mxCell id="Og1rNRoD4ZcS8iidNWIF-35" style="edgeStyle=none;rounded=0;orthogonalLoop=1;jettySize=auto;html=1;exitX=0;exitY=0.5;exitDx=0;exitDy=0;entryX=1;entryY=0.5;entryDx=0;entryDy=0;endArrow=none;endFill=0;" edge="1" parent="1" source="Og1rNRoD4ZcS8iidNWIF-30" target="Og1rNRoD4ZcS8iidNWIF-26">
          <mxGeometry relative="1" as="geometry">
            <mxPoint x="955" y="480" as="sourcePoint" />
            <mxPoint x="1080" y="460" as="targetPoint" />
          </mxGeometry>
        </mxCell>
        <mxCell id="Og1rNRoD4ZcS8iidNWIF-36" style="edgeStyle=none;rounded=0;orthogonalLoop=1;jettySize=auto;html=1;exitX=0;exitY=0.5;exitDx=0;exitDy=0;entryX=1;entryY=0.5;entryDx=0;entryDy=0;endArrow=none;endFill=0;" edge="1" parent="1" source="Og1rNRoD4ZcS8iidNWIF-31" target="Og1rNRoD4ZcS8iidNWIF-26">
          <mxGeometry relative="1" as="geometry">
            <mxPoint x="955" y="480" as="sourcePoint" />
            <mxPoint x="1080" y="460" as="targetPoint" />
          </mxGeometry>
        </mxCell>
        <mxCell id="Og1rNRoD4ZcS8iidNWIF-37" style="edgeStyle=none;rounded=0;orthogonalLoop=1;jettySize=auto;html=1;entryX=1;entryY=0.5;entryDx=0;entryDy=0;endArrow=none;endFill=0;exitX=0;exitY=0.5;exitDx=0;exitDy=0;" edge="1" parent="1" source="Og1rNRoD4ZcS8iidNWIF-33" target="Og1rNRoD4ZcS8iidNWIF-26">
          <mxGeometry relative="1" as="geometry">
            <mxPoint x="1350" y="305" as="sourcePoint" />
            <mxPoint x="1080" y="460" as="targetPoint" />
          </mxGeometry>
        </mxCell>
        <mxCell id="Og1rNRoD4ZcS8iidNWIF-38" style="edgeStyle=none;rounded=0;orthogonalLoop=1;jettySize=auto;html=1;exitX=0;exitY=0.5;exitDx=0;exitDy=0;entryX=1;entryY=0.5;entryDx=0;entryDy=0;endArrow=none;endFill=0;" edge="1" parent="1" source="Og1rNRoD4ZcS8iidNWIF-28" target="Og1rNRoD4ZcS8iidNWIF-26">
          <mxGeometry relative="1" as="geometry">
            <mxPoint x="955" y="480" as="sourcePoint" />
            <mxPoint x="1080" y="460" as="targetPoint" />
          </mxGeometry>
        </mxCell>
        <mxCell id="Og1rNRoD4ZcS8iidNWIF-40" value="id_pedido" style="ellipse;whiteSpace=wrap;html=1;align=center;fontStyle=4;fillColor=#fff2cc;strokeColor=#d6b656;" vertex="1" parent="1">
          <mxGeometry x="1120" y="50" width="70" height="30" as="geometry" />
        </mxCell>
        <mxCell id="Og1rNRoD4ZcS8iidNWIF-41" style="edgeStyle=none;rounded=0;orthogonalLoop=1;jettySize=auto;html=1;exitX=0.5;exitY=0;exitDx=0;exitDy=0;entryX=0.5;entryY=1;entryDx=0;entryDy=0;endArrow=none;endFill=0;" edge="1" parent="1" source="Og1rNRoD4ZcS8iidNWIF-2" target="Og1rNRoD4ZcS8iidNWIF-40">
          <mxGeometry relative="1" as="geometry">
            <mxPoint x="1016" y="250" as="sourcePoint" />
            <mxPoint x="936" y="180" as="targetPoint" />
          </mxGeometry>
        </mxCell>
        <mxCell id="Og1rNRoD4ZcS8iidNWIF-42" value="Cadastro" style="whiteSpace=wrap;html=1;align=center;fillColor=#fff2cc;strokeColor=#d6b656;" vertex="1" parent="1">
          <mxGeometry x="264" y="314" width="100" height="40" as="geometry" />
        </mxCell>
        <mxCell id="Og1rNRoD4ZcS8iidNWIF-43" value="endereco" style="ellipse;whiteSpace=wrap;html=1;align=center;fillColor=#fff2cc;strokeColor=#d6b656;" vertex="1" parent="1">
          <mxGeometry x="70" y="204" width="100" height="30" as="geometry" />
        </mxCell>
        <mxCell id="Og1rNRoD4ZcS8iidNWIF-44" value="email" style="ellipse;whiteSpace=wrap;html=1;align=center;fillColor=#fff2cc;strokeColor=#d6b656;" vertex="1" parent="1">
          <mxGeometry x="70" y="245" width="100" height="30" as="geometry" />
        </mxCell>
        <mxCell id="Og1rNRoD4ZcS8iidNWIF-45" value="senha" style="ellipse;whiteSpace=wrap;html=1;align=center;fillColor=#fff2cc;strokeColor=#d6b656;" vertex="1" parent="1">
          <mxGeometry x="-20" y="275" width="100" height="30" as="geometry" />
        </mxCell>
        <mxCell id="Og1rNRoD4ZcS8iidNWIF-47" value="id_comprador" style="ellipse;whiteSpace=wrap;html=1;align=center;fontStyle=4;fillColor=#fff2cc;strokeColor=#d6b656;" vertex="1" parent="1">
          <mxGeometry x="180" y="204" width="100" height="30" as="geometry" />
        </mxCell>
        <mxCell id="Og1rNRoD4ZcS8iidNWIF-48" style="edgeStyle=none;rounded=0;orthogonalLoop=1;jettySize=auto;html=1;entryX=0;entryY=0.5;entryDx=0;entryDy=0;endArrow=none;endFill=0;exitX=1;exitY=0.5;exitDx=0;exitDy=0;" edge="1" parent="1" source="Og1rNRoD4ZcS8iidNWIF-44" target="Og1rNRoD4ZcS8iidNWIF-42">
          <mxGeometry relative="1" as="geometry">
            <mxPoint x="551" y="354" as="sourcePoint" />
            <mxPoint x="490" y="384" as="targetPoint" />
          </mxGeometry>
        </mxCell>
        <mxCell id="Og1rNRoD4ZcS8iidNWIF-49" style="edgeStyle=none;rounded=0;orthogonalLoop=1;jettySize=auto;html=1;entryX=0;entryY=0.5;entryDx=0;entryDy=0;endArrow=none;endFill=0;exitX=1;exitY=0.5;exitDx=0;exitDy=0;" edge="1" parent="1" source="Og1rNRoD4ZcS8iidNWIF-45" target="Og1rNRoD4ZcS8iidNWIF-42">
          <mxGeometry relative="1" as="geometry">
            <mxPoint x="551" y="354" as="sourcePoint" />
            <mxPoint x="490" y="384" as="targetPoint" />
          </mxGeometry>
        </mxCell>
        <mxCell id="Og1rNRoD4ZcS8iidNWIF-50" style="edgeStyle=none;rounded=0;orthogonalLoop=1;jettySize=auto;html=1;entryX=0;entryY=0.5;entryDx=0;entryDy=0;endArrow=none;endFill=0;exitX=1;exitY=0.5;exitDx=0;exitDy=0;" edge="1" parent="1" target="Og1rNRoD4ZcS8iidNWIF-42">
          <mxGeometry relative="1" as="geometry">
            <mxPoint x="150.00000000000819" y="339" as="sourcePoint" />
            <mxPoint x="490" y="384" as="targetPoint" />
          </mxGeometry>
        </mxCell>
        <mxCell id="Og1rNRoD4ZcS8iidNWIF-51" style="edgeStyle=none;rounded=0;orthogonalLoop=1;jettySize=auto;html=1;entryX=0;entryY=0.5;entryDx=0;entryDy=0;endArrow=none;endFill=0;exitX=1;exitY=0.5;exitDx=0;exitDy=0;" edge="1" parent="1" source="Og1rNRoD4ZcS8iidNWIF-47" target="Og1rNRoD4ZcS8iidNWIF-42">
          <mxGeometry relative="1" as="geometry">
            <mxPoint x="551" y="354" as="sourcePoint" />
            <mxPoint x="490" y="384" as="targetPoint" />
          </mxGeometry>
        </mxCell>
        <mxCell id="Og1rNRoD4ZcS8iidNWIF-52" style="edgeStyle=none;rounded=0;orthogonalLoop=1;jettySize=auto;html=1;entryX=0;entryY=0.5;entryDx=0;entryDy=0;endArrow=none;endFill=0;exitX=1;exitY=0.5;exitDx=0;exitDy=0;" edge="1" parent="1" source="Og1rNRoD4ZcS8iidNWIF-43" target="Og1rNRoD4ZcS8iidNWIF-42">
          <mxGeometry relative="1" as="geometry">
            <mxPoint x="551" y="354" as="sourcePoint" />
            <mxPoint x="490" y="384" as="targetPoint" />
          </mxGeometry>
        </mxCell>
        <mxCell id="Og1rNRoD4ZcS8iidNWIF-53" value="Vendedores" style="whiteSpace=wrap;html=1;align=center;fillColor=#fff2cc;strokeColor=#d6b656;" vertex="1" parent="1">
          <mxGeometry x="470" y="80" width="100" height="40" as="geometry" />
        </mxCell>
        <mxCell id="Og1rNRoD4ZcS8iidNWIF-54" value="nome" style="ellipse;whiteSpace=wrap;html=1;align=center;fillColor=#fff2cc;strokeColor=#d6b656;" vertex="1" parent="1">
          <mxGeometry x="140" y="380" width="100" height="30" as="geometry" />
        </mxCell>
        <mxCell id="Og1rNRoD4ZcS8iidNWIF-55" style="edgeStyle=none;rounded=0;orthogonalLoop=1;jettySize=auto;html=1;entryX=0;entryY=0.5;entryDx=0;entryDy=0;endArrow=none;endFill=0;exitX=0.5;exitY=0;exitDx=0;exitDy=0;" edge="1" parent="1" source="Og1rNRoD4ZcS8iidNWIF-54" target="Og1rNRoD4ZcS8iidNWIF-42">
          <mxGeometry relative="1" as="geometry">
            <mxPoint x="551" y="354" as="sourcePoint" />
            <mxPoint x="490" y="384" as="targetPoint" />
          </mxGeometry>
        </mxCell>
        <mxCell id="Og1rNRoD4ZcS8iidNWIF-66" value="nome" style="ellipse;whiteSpace=wrap;html=1;align=center;fillColor=#fff2cc;strokeColor=#d6b656;" vertex="1" parent="1">
          <mxGeometry x="570" y="-20" width="70" height="30" as="geometry" />
        </mxCell>
        <mxCell id="Og1rNRoD4ZcS8iidNWIF-68" value="senha" style="ellipse;whiteSpace=wrap;html=1;align=center;fillColor=#fff2cc;strokeColor=#d6b656;" vertex="1" parent="1">
          <mxGeometry x="540" y="-65" width="70" height="30" as="geometry" />
        </mxCell>
        <mxCell id="Og1rNRoD4ZcS8iidNWIF-69" value="email" style="ellipse;whiteSpace=wrap;html=1;align=center;fillColor=#fff2cc;strokeColor=#d6b656;" vertex="1" parent="1">
          <mxGeometry x="410" y="-5" width="60" height="30" as="geometry" />
        </mxCell>
        <mxCell id="Og1rNRoD4ZcS8iidNWIF-70" value="endereco_fornecedor" style="ellipse;whiteSpace=wrap;html=1;align=center;fillColor=#fff2cc;strokeColor=#d6b656;" vertex="1" parent="1">
          <mxGeometry x="320" y="40" width="130" height="30" as="geometry" />
        </mxCell>
        <mxCell id="Og1rNRoD4ZcS8iidNWIF-71" value="id_fornecedor" style="ellipse;whiteSpace=wrap;html=1;align=center;fontStyle=4;fillColor=#fff2cc;strokeColor=#d6b656;" vertex="1" parent="1">
          <mxGeometry x="590" y="20" width="100" height="30" as="geometry" />
        </mxCell>
        <mxCell id="Og1rNRoD4ZcS8iidNWIF-72" style="edgeStyle=none;rounded=0;orthogonalLoop=1;jettySize=auto;html=1;entryX=0.5;entryY=1;entryDx=0;entryDy=0;endArrow=none;endFill=0;exitX=0.5;exitY=0;exitDx=0;exitDy=0;" edge="1" parent="1" source="Og1rNRoD4ZcS8iidNWIF-53" target="Og1rNRoD4ZcS8iidNWIF-70">
          <mxGeometry relative="1" as="geometry">
            <mxPoint x="446" y="200" as="sourcePoint" />
            <mxPoint x="430" y="315" as="targetPoint" />
          </mxGeometry>
        </mxCell>
        <mxCell id="Og1rNRoD4ZcS8iidNWIF-73" style="edgeStyle=none;rounded=0;orthogonalLoop=1;jettySize=auto;html=1;entryX=0.5;entryY=1;entryDx=0;entryDy=0;endArrow=none;endFill=0;exitX=0.5;exitY=0;exitDx=0;exitDy=0;" edge="1" parent="1" source="Og1rNRoD4ZcS8iidNWIF-53" target="Og1rNRoD4ZcS8iidNWIF-69">
          <mxGeometry relative="1" as="geometry">
            <mxPoint x="446" y="200" as="sourcePoint" />
            <mxPoint x="430" y="315" as="targetPoint" />
          </mxGeometry>
        </mxCell>
        <mxCell id="Og1rNRoD4ZcS8iidNWIF-74" style="edgeStyle=none;rounded=0;orthogonalLoop=1;jettySize=auto;html=1;entryX=0.5;entryY=1;entryDx=0;entryDy=0;endArrow=none;endFill=0;exitX=0.5;exitY=0;exitDx=0;exitDy=0;" edge="1" parent="1" source="Og1rNRoD4ZcS8iidNWIF-53" target="Og1rNRoD4ZcS8iidNWIF-118">
          <mxGeometry relative="1" as="geometry">
            <mxPoint x="446" y="200" as="sourcePoint" />
            <mxPoint x="510" as="targetPoint" />
          </mxGeometry>
        </mxCell>
        <mxCell id="Og1rNRoD4ZcS8iidNWIF-75" style="edgeStyle=none;rounded=0;orthogonalLoop=1;jettySize=auto;html=1;entryX=0.5;entryY=1;entryDx=0;entryDy=0;endArrow=none;endFill=0;exitX=0.5;exitY=0;exitDx=0;exitDy=0;" edge="1" parent="1" source="Og1rNRoD4ZcS8iidNWIF-53" target="Og1rNRoD4ZcS8iidNWIF-68">
          <mxGeometry relative="1" as="geometry">
            <mxPoint x="446" y="200" as="sourcePoint" />
            <mxPoint x="430" y="315" as="targetPoint" />
          </mxGeometry>
        </mxCell>
        <mxCell id="Og1rNRoD4ZcS8iidNWIF-76" style="edgeStyle=none;rounded=0;orthogonalLoop=1;jettySize=auto;html=1;entryX=0.5;entryY=1;entryDx=0;entryDy=0;endArrow=none;endFill=0;exitX=0.5;exitY=0;exitDx=0;exitDy=0;" edge="1" parent="1" source="Og1rNRoD4ZcS8iidNWIF-53" target="Og1rNRoD4ZcS8iidNWIF-66">
          <mxGeometry relative="1" as="geometry">
            <mxPoint x="446" y="200" as="sourcePoint" />
            <mxPoint x="430" y="315" as="targetPoint" />
          </mxGeometry>
        </mxCell>
        <mxCell id="Og1rNRoD4ZcS8iidNWIF-77" style="edgeStyle=none;rounded=0;orthogonalLoop=1;jettySize=auto;html=1;entryX=0.5;entryY=1;entryDx=0;entryDy=0;endArrow=none;endFill=0;exitX=0.5;exitY=0;exitDx=0;exitDy=0;" edge="1" parent="1" source="Og1rNRoD4ZcS8iidNWIF-53" target="Og1rNRoD4ZcS8iidNWIF-71">
          <mxGeometry relative="1" as="geometry">
            <mxPoint x="446" y="200" as="sourcePoint" />
            <mxPoint x="430" y="315" as="targetPoint" />
          </mxGeometry>
        </mxCell>
        <mxCell id="Og1rNRoD4ZcS8iidNWIF-78" value="Compradores" style="whiteSpace=wrap;html=1;align=center;fillColor=#fff2cc;strokeColor=#d6b656;" vertex="1" parent="1">
          <mxGeometry x="234" y="618" width="100" height="40" as="geometry" />
        </mxCell>
        <mxCell id="Og1rNRoD4ZcS8iidNWIF-79" value="&lt;span style=&quot;border-bottom: 1px dotted&quot;&gt;id_comprador&lt;/span&gt;" style="ellipse;whiteSpace=wrap;html=1;align=center;fillColor=#fff2cc;strokeColor=#d6b656;" vertex="1" parent="1">
          <mxGeometry x="110" y="554" width="90" height="40" as="geometry" />
        </mxCell>
        <mxCell id="Og1rNRoD4ZcS8iidNWIF-80" value="email" style="ellipse;whiteSpace=wrap;html=1;align=center;fillColor=#fff2cc;strokeColor=#d6b656;" vertex="1" parent="1">
          <mxGeometry x="90" y="628" width="100" height="30" as="geometry" />
        </mxCell>
        <mxCell id="Og1rNRoD4ZcS8iidNWIF-81" value="senha" style="ellipse;whiteSpace=wrap;html=1;align=center;fillColor=#fff2cc;strokeColor=#d6b656;" vertex="1" parent="1">
          <mxGeometry x="110" y="694" width="100" height="30" as="geometry" />
        </mxCell>
        <mxCell id="Og1rNRoD4ZcS8iidNWIF-82" style="edgeStyle=none;rounded=0;orthogonalLoop=1;jettySize=auto;html=1;entryX=0;entryY=0.5;entryDx=0;entryDy=0;endArrow=none;endFill=0;exitX=1;exitY=0.5;exitDx=0;exitDy=0;" edge="1" parent="1" source="Og1rNRoD4ZcS8iidNWIF-79" target="Og1rNRoD4ZcS8iidNWIF-78">
          <mxGeometry relative="1" as="geometry">
            <mxPoint x="536" y="494" as="sourcePoint" />
            <mxPoint x="520" y="609" as="targetPoint" />
          </mxGeometry>
        </mxCell>
        <mxCell id="Og1rNRoD4ZcS8iidNWIF-83" style="edgeStyle=none;rounded=0;orthogonalLoop=1;jettySize=auto;html=1;entryX=0;entryY=0.5;entryDx=0;entryDy=0;endArrow=none;endFill=0;exitX=1;exitY=0.5;exitDx=0;exitDy=0;" edge="1" parent="1" source="Og1rNRoD4ZcS8iidNWIF-80" target="Og1rNRoD4ZcS8iidNWIF-78">
          <mxGeometry relative="1" as="geometry">
            <mxPoint x="536" y="494" as="sourcePoint" />
            <mxPoint x="520" y="609" as="targetPoint" />
          </mxGeometry>
        </mxCell>
        <mxCell id="Og1rNRoD4ZcS8iidNWIF-84" style="edgeStyle=none;rounded=0;orthogonalLoop=1;jettySize=auto;html=1;entryX=0;entryY=0.5;entryDx=0;entryDy=0;endArrow=none;endFill=0;exitX=1;exitY=0.5;exitDx=0;exitDy=0;" edge="1" parent="1" source="Og1rNRoD4ZcS8iidNWIF-81" target="Og1rNRoD4ZcS8iidNWIF-78">
          <mxGeometry relative="1" as="geometry">
            <mxPoint x="536" y="494" as="sourcePoint" />
            <mxPoint x="520" y="609" as="targetPoint" />
          </mxGeometry>
        </mxCell>
        <mxCell id="Og1rNRoD4ZcS8iidNWIF-85" value="Categoria" style="whiteSpace=wrap;html=1;align=center;fillColor=#fff2cc;strokeColor=#d6b656;" vertex="1" parent="1">
          <mxGeometry x="946" y="850" width="100" height="40" as="geometry" />
        </mxCell>
        <mxCell id="Og1rNRoD4ZcS8iidNWIF-86" value="tipo_produto" style="ellipse;whiteSpace=wrap;html=1;align=center;fillColor=#fff2cc;strokeColor=#d6b656;" vertex="1" parent="1">
          <mxGeometry x="1260" y="510" width="80" height="30" as="geometry" />
        </mxCell>
        <mxCell id="Og1rNRoD4ZcS8iidNWIF-87" style="edgeStyle=none;rounded=0;orthogonalLoop=1;jettySize=auto;html=1;exitX=0.5;exitY=1;exitDx=0;exitDy=0;entryX=1;entryY=0.5;entryDx=0;entryDy=0;endArrow=none;endFill=0;" edge="1" parent="1" source="Og1rNRoD4ZcS8iidNWIF-86" target="Og1rNRoD4ZcS8iidNWIF-1">
          <mxGeometry relative="1" as="geometry" />
        </mxCell>
        <mxCell id="Og1rNRoD4ZcS8iidNWIF-88" value="&lt;span style=&quot;border-bottom: 1px dotted&quot;&gt;tipo_produto&lt;/span&gt;" style="ellipse;whiteSpace=wrap;html=1;align=center;fillColor=#fff2cc;strokeColor=#d6b656;" vertex="1" parent="1">
          <mxGeometry x="1130" y="850" width="90" height="40" as="geometry" />
        </mxCell>
        <mxCell id="Og1rNRoD4ZcS8iidNWIF-89" style="edgeStyle=none;rounded=0;orthogonalLoop=1;jettySize=auto;html=1;entryX=1;entryY=0.5;entryDx=0;entryDy=0;endArrow=none;endFill=0;exitX=0;exitY=0.5;exitDx=0;exitDy=0;" edge="1" parent="1" source="Og1rNRoD4ZcS8iidNWIF-88" target="Og1rNRoD4ZcS8iidNWIF-85">
          <mxGeometry relative="1" as="geometry">
            <mxPoint x="916" y="660" as="sourcePoint" />
            <mxPoint x="900" y="775" as="targetPoint" />
          </mxGeometry>
        </mxCell>
        <mxCell id="Og1rNRoD4ZcS8iidNWIF-90" value="Redes_Venda" style="whiteSpace=wrap;html=1;align=center;fillColor=#fff2cc;strokeColor=#d6b656;" vertex="1" parent="1">
          <mxGeometry x="540" y="850" width="100" height="40" as="geometry" />
        </mxCell>
        <mxCell id="Og1rNRoD4ZcS8iidNWIF-93" value="&lt;span style=&quot;border-bottom: 1px dotted&quot;&gt;endereco_fornecedor&lt;/span&gt;" style="ellipse;whiteSpace=wrap;html=1;align=center;fillColor=#fff2cc;strokeColor=#d6b656;" vertex="1" parent="1">
          <mxGeometry x="320" y="850" width="132" height="40" as="geometry" />
        </mxCell>
        <mxCell id="Og1rNRoD4ZcS8iidNWIF-94" style="edgeStyle=none;rounded=0;orthogonalLoop=1;jettySize=auto;html=1;entryX=1;entryY=0.5;entryDx=0;entryDy=0;endArrow=none;endFill=0;exitX=0;exitY=0.5;exitDx=0;exitDy=0;" edge="1" parent="1" source="Og1rNRoD4ZcS8iidNWIF-90" target="Og1rNRoD4ZcS8iidNWIF-93">
          <mxGeometry relative="1" as="geometry">
            <mxPoint x="546" y="730" as="sourcePoint" />
            <mxPoint x="530" y="845" as="targetPoint" />
          </mxGeometry>
        </mxCell>
        <mxCell id="Og1rNRoD4ZcS8iidNWIF-95" style="edgeStyle=none;rounded=0;orthogonalLoop=1;jettySize=auto;html=1;entryX=0;entryY=0.5;entryDx=0;entryDy=0;endArrow=none;endFill=0;exitX=1;exitY=0.5;exitDx=0;exitDy=0;" edge="1" parent="1" target="Og1rNRoD4ZcS8iidNWIF-2">
          <mxGeometry relative="1" as="geometry">
            <mxPoint x="800" y="100" as="sourcePoint" />
            <mxPoint x="710" y="515" as="targetPoint" />
          </mxGeometry>
        </mxCell>
        <mxCell id="Og1rNRoD4ZcS8iidNWIF-99" value="N" style="edgeLabel;html=1;align=center;verticalAlign=middle;resizable=0;points=[];" vertex="1" connectable="0" parent="Og1rNRoD4ZcS8iidNWIF-95">
          <mxGeometry x="-0.1076" y="2" relative="1" as="geometry">
            <mxPoint as="offset" />
          </mxGeometry>
        </mxCell>
        <mxCell id="Og1rNRoD4ZcS8iidNWIF-100" style="edgeStyle=none;rounded=0;orthogonalLoop=1;jettySize=auto;html=1;entryX=0.5;entryY=0;entryDx=0;entryDy=0;endArrow=none;endFill=0;exitX=0.5;exitY=1;exitDx=0;exitDy=0;" edge="1" parent="1" source="Og1rNRoD4ZcS8iidNWIF-104" target="Og1rNRoD4ZcS8iidNWIF-78">
          <mxGeometry relative="1" as="geometry">
            <mxPoint x="786" y="400" as="sourcePoint" />
            <mxPoint x="770" y="515" as="targetPoint" />
          </mxGeometry>
        </mxCell>
        <mxCell id="Og1rNRoD4ZcS8iidNWIF-103" value="1" style="edgeLabel;html=1;align=center;verticalAlign=middle;resizable=0;points=[];" vertex="1" connectable="0" parent="Og1rNRoD4ZcS8iidNWIF-100">
          <mxGeometry x="0.5916" relative="1" as="geometry">
            <mxPoint as="offset" />
          </mxGeometry>
        </mxCell>
        <mxCell id="Og1rNRoD4ZcS8iidNWIF-105" value="" style="edgeStyle=none;rounded=0;orthogonalLoop=1;jettySize=auto;html=1;entryX=0.5;entryY=0;entryDx=0;entryDy=0;endArrow=none;endFill=0;exitX=0.5;exitY=1;exitDx=0;exitDy=0;" edge="1" parent="1" source="Og1rNRoD4ZcS8iidNWIF-42" target="Og1rNRoD4ZcS8iidNWIF-104">
          <mxGeometry relative="1" as="geometry">
            <mxPoint x="314" y="354" as="sourcePoint" />
            <mxPoint x="284" y="618" as="targetPoint" />
          </mxGeometry>
        </mxCell>
        <mxCell id="Og1rNRoD4ZcS8iidNWIF-106" value="1" style="edgeLabel;html=1;align=center;verticalAlign=middle;resizable=0;points=[];" vertex="1" connectable="0" parent="Og1rNRoD4ZcS8iidNWIF-105">
          <mxGeometry x="-0.4438" relative="1" as="geometry">
            <mxPoint y="-1" as="offset" />
          </mxGeometry>
        </mxCell>
        <mxCell id="Og1rNRoD4ZcS8iidNWIF-104" value="Fazem" style="shape=rhombus;perimeter=rhombusPerimeter;whiteSpace=wrap;html=1;align=center;fillColor=#f8cecc;strokeColor=#b85450;" vertex="1" parent="1">
          <mxGeometry x="260" y="470" width="90" height="40" as="geometry" />
        </mxCell>
        <mxCell id="Og1rNRoD4ZcS8iidNWIF-108" style="edgeStyle=none;rounded=0;orthogonalLoop=1;jettySize=auto;html=1;entryX=0.5;entryY=0;entryDx=0;entryDy=0;endArrow=none;endFill=0;exitX=0.5;exitY=1;exitDx=0;exitDy=0;" edge="1" parent="1" source="Og1rNRoD4ZcS8iidNWIF-111" target="Og1rNRoD4ZcS8iidNWIF-90">
          <mxGeometry relative="1" as="geometry">
            <mxPoint x="406" y="680" as="sourcePoint" />
            <mxPoint x="390" y="795" as="targetPoint" />
          </mxGeometry>
        </mxCell>
        <mxCell id="Og1rNRoD4ZcS8iidNWIF-115" value="N" style="edgeLabel;html=1;align=center;verticalAlign=middle;resizable=0;points=[];" vertex="1" connectable="0" parent="Og1rNRoD4ZcS8iidNWIF-108">
          <mxGeometry x="0.0138" y="-2" relative="1" as="geometry">
            <mxPoint x="1" as="offset" />
          </mxGeometry>
        </mxCell>
        <mxCell id="Og1rNRoD4ZcS8iidNWIF-112" value="" style="edgeStyle=none;rounded=0;orthogonalLoop=1;jettySize=auto;html=1;entryX=0.5;entryY=0;entryDx=0;entryDy=0;endArrow=none;endFill=0;exitX=0.5;exitY=1;exitDx=0;exitDy=0;" edge="1" parent="1" source="Og1rNRoD4ZcS8iidNWIF-53" target="Og1rNRoD4ZcS8iidNWIF-111">
          <mxGeometry relative="1" as="geometry">
            <mxPoint x="520" y="120" as="sourcePoint" />
            <mxPoint x="590" y="850" as="targetPoint" />
          </mxGeometry>
        </mxCell>
        <mxCell id="Og1rNRoD4ZcS8iidNWIF-114" value="1" style="edgeLabel;html=1;align=center;verticalAlign=middle;resizable=0;points=[];" vertex="1" connectable="0" parent="Og1rNRoD4ZcS8iidNWIF-112">
          <mxGeometry x="0.0092" y="-1" relative="1" as="geometry">
            <mxPoint as="offset" />
          </mxGeometry>
        </mxCell>
        <mxCell id="Og1rNRoD4ZcS8iidNWIF-117" value="" style="edgeStyle=none;rounded=0;orthogonalLoop=1;jettySize=auto;html=1;" edge="1" parent="1" source="Og1rNRoD4ZcS8iidNWIF-116" target="Og1rNRoD4ZcS8iidNWIF-42">
          <mxGeometry relative="1" as="geometry" />
        </mxCell>
        <mxCell id="Og1rNRoD4ZcS8iidNWIF-116" value="telefones" style="ellipse;shape=doubleEllipse;margin=3;whiteSpace=wrap;html=1;align=center;fillColor=#fff2cc;strokeColor=#d6b656;" vertex="1" parent="1">
          <mxGeometry x="50" y="320" width="100" height="40" as="geometry" />
        </mxCell>
        <mxCell id="Og1rNRoD4ZcS8iidNWIF-118" value="telefones" style="ellipse;shape=doubleEllipse;margin=3;whiteSpace=wrap;html=1;align=center;fillColor=#fff2cc;strokeColor=#d6b656;" vertex="1" parent="1">
          <mxGeometry x="430" y="-65" width="100" height="40" as="geometry" />
        </mxCell>
        <mxCell id="Og1rNRoD4ZcS8iidNWIF-119" style="edgeStyle=none;rounded=0;orthogonalLoop=1;jettySize=auto;html=1;endArrow=none;endFill=0;exitX=0.5;exitY=1;exitDx=0;exitDy=0;entryX=1;entryY=0.5;entryDx=0;entryDy=0;" edge="1" parent="1" source="Og1rNRoD4ZcS8iidNWIF-124" target="Og1rNRoD4ZcS8iidNWIF-78">
          <mxGeometry relative="1" as="geometry">
            <mxPoint x="816" y="380" as="sourcePoint" />
            <mxPoint x="390" y="550" as="targetPoint" />
          </mxGeometry>
        </mxCell>
        <mxCell id="Og1rNRoD4ZcS8iidNWIF-126" value="1" style="edgeLabel;html=1;align=center;verticalAlign=middle;resizable=0;points=[];" vertex="1" connectable="0" parent="Og1rNRoD4ZcS8iidNWIF-119">
          <mxGeometry x="0.3233" relative="1" as="geometry">
            <mxPoint x="-1" as="offset" />
          </mxGeometry>
        </mxCell>
        <mxCell id="Og1rNRoD4ZcS8iidNWIF-111" value="Possui" style="shape=rhombus;perimeter=rhombusPerimeter;whiteSpace=wrap;html=1;align=center;fillColor=#f8cecc;strokeColor=#b85450;" vertex="1" parent="1">
          <mxGeometry x="500" y="430" width="90" height="40" as="geometry" />
        </mxCell>
        <mxCell id="Og1rNRoD4ZcS8iidNWIF-125" value="" style="edgeStyle=none;rounded=0;orthogonalLoop=1;jettySize=auto;html=1;endArrow=none;endFill=0;exitX=0.5;exitY=1;exitDx=0;exitDy=0;entryX=0.5;entryY=0;entryDx=0;entryDy=0;" edge="1" parent="1" source="Og1rNRoD4ZcS8iidNWIF-2" target="Og1rNRoD4ZcS8iidNWIF-124">
          <mxGeometry relative="1" as="geometry">
            <mxPoint x="966" y="120" as="sourcePoint" />
            <mxPoint x="334" y="638" as="targetPoint" />
          </mxGeometry>
        </mxCell>
        <mxCell id="Og1rNRoD4ZcS8iidNWIF-127" value="N" style="edgeLabel;html=1;align=center;verticalAlign=middle;resizable=0;points=[];" vertex="1" connectable="0" parent="Og1rNRoD4ZcS8iidNWIF-125">
          <mxGeometry x="0.1328" y="-1" relative="1" as="geometry">
            <mxPoint y="1" as="offset" />
          </mxGeometry>
        </mxCell>
        <mxCell id="Og1rNRoD4ZcS8iidNWIF-124" value="Fazem" style="shape=rhombus;perimeter=rhombusPerimeter;whiteSpace=wrap;html=1;align=center;fillColor=#f8cecc;strokeColor=#b85450;" vertex="1" parent="1">
          <mxGeometry x="680" y="320" width="90" height="40" as="geometry" />
        </mxCell>
        <mxCell id="Og1rNRoD4ZcS8iidNWIF-128" style="edgeStyle=none;rounded=0;orthogonalLoop=1;jettySize=auto;html=1;entryX=0.5;entryY=0;entryDx=0;entryDy=0;endArrow=none;endFill=0;exitX=0.5;exitY=1;exitDx=0;exitDy=0;" edge="1" parent="1" source="Og1rNRoD4ZcS8iidNWIF-129" target="Og1rNRoD4ZcS8iidNWIF-85">
          <mxGeometry relative="1" as="geometry">
            <mxPoint x="956" y="650" as="sourcePoint" />
            <mxPoint x="940" y="765" as="targetPoint" />
          </mxGeometry>
        </mxCell>
        <mxCell id="Og1rNRoD4ZcS8iidNWIF-132" value="1" style="edgeLabel;html=1;align=center;verticalAlign=middle;resizable=0;points=[];" vertex="1" connectable="0" parent="Og1rNRoD4ZcS8iidNWIF-128">
          <mxGeometry x="0.0766" y="-3" relative="1" as="geometry">
            <mxPoint as="offset" />
          </mxGeometry>
        </mxCell>
        <mxCell id="Og1rNRoD4ZcS8iidNWIF-130" value="" style="edgeStyle=none;rounded=0;orthogonalLoop=1;jettySize=auto;html=1;entryX=0.5;entryY=0;entryDx=0;entryDy=0;endArrow=none;endFill=0;exitX=0.5;exitY=1;exitDx=0;exitDy=0;" edge="1" parent="1" source="Og1rNRoD4ZcS8iidNWIF-1" target="Og1rNRoD4ZcS8iidNWIF-129">
          <mxGeometry relative="1" as="geometry">
            <mxPoint x="1240" y="654" as="sourcePoint" />
            <mxPoint x="996" y="850" as="targetPoint" />
          </mxGeometry>
        </mxCell>
        <mxCell id="Og1rNRoD4ZcS8iidNWIF-131" value="N" style="edgeLabel;html=1;align=center;verticalAlign=middle;resizable=0;points=[];" vertex="1" connectable="0" parent="Og1rNRoD4ZcS8iidNWIF-130">
          <mxGeometry x="0.1477" y="-3" relative="1" as="geometry">
            <mxPoint x="-1" as="offset" />
          </mxGeometry>
        </mxCell>
        <mxCell id="Og1rNRoD4ZcS8iidNWIF-129" value="Possui" style="shape=rhombus;perimeter=rhombusPerimeter;whiteSpace=wrap;html=1;align=center;fillColor=#f8cecc;strokeColor=#b85450;" vertex="1" parent="1">
          <mxGeometry x="1077" y="724" width="90" height="40" as="geometry" />
        </mxCell>
        <mxCell id="Og1rNRoD4ZcS8iidNWIF-133" value="&lt;span style=&quot;border-bottom: 1px dotted&quot;&gt;forma_pagamento&lt;/span&gt;" style="ellipse;whiteSpace=wrap;html=1;align=center;fillColor=#fff2cc;strokeColor=#d6b656;" vertex="1" parent="1">
          <mxGeometry x="1147" y="-10" width="110" height="40" as="geometry" />
        </mxCell>
        <mxCell id="Og1rNRoD4ZcS8iidNWIF-134" style="edgeStyle=none;rounded=0;orthogonalLoop=1;jettySize=auto;html=1;exitX=0.5;exitY=0;exitDx=0;exitDy=0;entryX=0.5;entryY=1;entryDx=0;entryDy=0;endArrow=none;endFill=0;" edge="1" parent="1" source="Og1rNRoD4ZcS8iidNWIF-2" target="Og1rNRoD4ZcS8iidNWIF-133">
          <mxGeometry relative="1" as="geometry">
            <mxPoint x="1016" y="250" as="sourcePoint" />
            <mxPoint x="936" y="180" as="targetPoint" />
          </mxGeometry>
        </mxCell>
        <mxCell id="Og1rNRoD4ZcS8iidNWIF-135" style="edgeStyle=none;rounded=0;orthogonalLoop=1;jettySize=auto;html=1;entryX=0.5;entryY=0;entryDx=0;entryDy=0;endArrow=none;endFill=0;exitX=0.5;exitY=1;exitDx=0;exitDy=0;" edge="1" parent="1" source="Og1rNRoD4ZcS8iidNWIF-137" target="Og1rNRoD4ZcS8iidNWIF-26">
          <mxGeometry relative="1" as="geometry">
            <mxPoint x="1006" y="270" as="sourcePoint" />
            <mxPoint x="990" y="385" as="targetPoint" />
          </mxGeometry>
        </mxCell>
        <mxCell id="Og1rNRoD4ZcS8iidNWIF-141" value="1" style="edgeLabel;html=1;align=center;verticalAlign=middle;resizable=0;points=[];" vertex="1" connectable="0" parent="Og1rNRoD4ZcS8iidNWIF-135">
          <mxGeometry x="-0.0895" y="-1" relative="1" as="geometry">
            <mxPoint as="offset" />
          </mxGeometry>
        </mxCell>
        <mxCell id="Og1rNRoD4ZcS8iidNWIF-139" value="" style="edgeStyle=none;rounded=0;orthogonalLoop=1;jettySize=auto;html=1;entryX=0.5;entryY=0;entryDx=0;entryDy=0;endArrow=none;endFill=0;exitX=1;exitY=0.5;exitDx=0;exitDy=0;" edge="1" parent="1" source="Og1rNRoD4ZcS8iidNWIF-2" target="Og1rNRoD4ZcS8iidNWIF-137">
          <mxGeometry relative="1" as="geometry">
            <mxPoint x="1016" y="100" as="sourcePoint" />
            <mxPoint x="1230" y="300" as="targetPoint" />
          </mxGeometry>
        </mxCell>
        <mxCell id="Og1rNRoD4ZcS8iidNWIF-140" value="N" style="edgeLabel;html=1;align=center;verticalAlign=middle;resizable=0;points=[];" vertex="1" connectable="0" parent="Og1rNRoD4ZcS8iidNWIF-139">
          <mxGeometry x="-0.092" relative="1" as="geometry">
            <mxPoint as="offset" />
          </mxGeometry>
        </mxCell>
        <mxCell id="Og1rNRoD4ZcS8iidNWIF-137" value="Possui" style="shape=rhombus;perimeter=rhombusPerimeter;whiteSpace=wrap;html=1;align=center;fillColor=#f8cecc;strokeColor=#b85450;" vertex="1" parent="1">
          <mxGeometry x="1080" y="170" width="90" height="40" as="geometry" />
        </mxCell>
        <mxCell id="Og1rNRoD4ZcS8iidNWIF-142" style="edgeStyle=none;rounded=0;orthogonalLoop=1;jettySize=auto;html=1;entryX=0;entryY=0.5;entryDx=0;entryDy=0;endArrow=none;endFill=0;exitX=0.5;exitY=1;exitDx=0;exitDy=0;" edge="1" parent="1" source="Og1rNRoD4ZcS8iidNWIF-144" target="Og1rNRoD4ZcS8iidNWIF-1">
          <mxGeometry relative="1" as="geometry">
            <mxPoint x="996" y="520" as="sourcePoint" />
            <mxPoint x="980" y="635" as="targetPoint" />
          </mxGeometry>
        </mxCell>
        <mxCell id="Og1rNRoD4ZcS8iidNWIF-147" value="N" style="edgeLabel;html=1;align=center;verticalAlign=middle;resizable=0;points=[];" vertex="1" connectable="0" parent="Og1rNRoD4ZcS8iidNWIF-142">
          <mxGeometry x="0.0054" y="1" relative="1" as="geometry">
            <mxPoint y="1" as="offset" />
          </mxGeometry>
        </mxCell>
        <mxCell id="Og1rNRoD4ZcS8iidNWIF-145" value="" style="edgeStyle=none;rounded=0;orthogonalLoop=1;jettySize=auto;html=1;entryX=0.5;entryY=0;entryDx=0;entryDy=0;endArrow=none;endFill=0;exitX=0.5;exitY=1;exitDx=0;exitDy=0;" edge="1" parent="1" source="Og1rNRoD4ZcS8iidNWIF-2" target="Og1rNRoD4ZcS8iidNWIF-144">
          <mxGeometry relative="1" as="geometry">
            <mxPoint x="966" y="120" as="sourcePoint" />
            <mxPoint x="1190" y="634" as="targetPoint" />
          </mxGeometry>
        </mxCell>
        <mxCell id="Og1rNRoD4ZcS8iidNWIF-146" value="1" style="edgeLabel;html=1;align=center;verticalAlign=middle;resizable=0;points=[];" vertex="1" connectable="0" parent="Og1rNRoD4ZcS8iidNWIF-145">
          <mxGeometry x="-0.035" y="-1" relative="1" as="geometry">
            <mxPoint as="offset" />
          </mxGeometry>
        </mxCell>
        <mxCell id="Og1rNRoD4ZcS8iidNWIF-144" value="Possui" style="shape=rhombus;perimeter=rhombusPerimeter;whiteSpace=wrap;html=1;align=center;fillColor=#f8cecc;strokeColor=#b85450;" vertex="1" parent="1">
          <mxGeometry x="1040" y="375" width="90" height="40" as="geometry" />
        </mxCell>
        <mxCell id="Og1rNRoD4ZcS8iidNWIF-148" value="Possui" style="shape=rhombus;perimeter=rhombusPerimeter;whiteSpace=wrap;html=1;align=center;fillColor=#f8cecc;strokeColor=#b85450;" vertex="1" parent="1">
          <mxGeometry x="720" y="80" width="90" height="40" as="geometry" />
        </mxCell>
        <mxCell id="Og1rNRoD4ZcS8iidNWIF-150" value="" style="edgeStyle=none;rounded=0;orthogonalLoop=1;jettySize=auto;html=1;endArrow=none;endFill=0;exitX=0;exitY=0.5;exitDx=0;exitDy=0;entryX=1;entryY=0.5;entryDx=0;entryDy=0;" edge="1" parent="1" source="Og1rNRoD4ZcS8iidNWIF-148" target="Og1rNRoD4ZcS8iidNWIF-53">
          <mxGeometry relative="1" as="geometry">
            <mxPoint x="841" y="210" as="sourcePoint" />
            <mxPoint x="560" y="120" as="targetPoint" />
          </mxGeometry>
        </mxCell>
        <mxCell id="Og1rNRoD4ZcS8iidNWIF-152" value="1" style="edgeLabel;html=1;align=center;verticalAlign=middle;resizable=0;points=[];" vertex="1" connectable="0" parent="Og1rNRoD4ZcS8iidNWIF-150">
          <mxGeometry x="0.0126" y="1" relative="1" as="geometry">
            <mxPoint as="offset" />
          </mxGeometry>
        </mxCell>
      </root>
    </mxGraphModel>
  </diagram>
</mxfile>
